Coordinates
version=1
nRows=7
nColumns=40
inDegrees=yes

Units are S.I. units (second, meters, Newtons, ...)
Angles are in degrees.

endheader
time	pelvis_tilt	pelvis_list	pelvis_rotation	pelvis_tx	pelvis_ty	pelvis_tz	hip_flexion_r	hip_adduction_r	hip_rotation_r	knee_angle_r	knee_angle_r_beta	ankle_angle_r	subtalar_angle_r	mtp_angle_r	hip_flexion_l	hip_adduction_l	hip_rotation_l	knee_angle_l	knee_angle_l_beta	ankle_angle_l	subtalar_angle_l	mtp_angle_l	lumbar_extension	lumbar_bending	lumbar_rotation	arm_flex_r	arm_add_r	arm_rot_r	elbow_flex_r	pro_sup_r	wrist_flex_r	wrist_dev_r	arm_flex_l	arm_add_l	arm_rot_l	elbow_flex_l	pro_sup_l	wrist_flex_l	wrist_dev_l
     36.57000000	     -6.13197266	     -6.83596509	      3.84400072	      1.08083564	      0.92585685	      0.49503535	     16.46579644	      4.61533412	    -17.22064446	     18.76592810	     18.76592810	     10.14174571	     -0.29861331	     -1.06115148	     29.52677552	    -14.36716767	      4.41734770	     72.34101910	     72.34101910	      0.75796100	    -16.75054743	      4.72355233	    -11.09013027	      6.68611259	      4.00746850	     10.83271691	    -16.73467132	     -1.11888191	     62.80915377	     45.01786468	      0.00000000	      0.00000000	      7.03079893	    -11.38438413	      4.78249023	     48.44580534	     45.86730430	      0.00000000	      0.00000000
     36.58142857	     -6.21996077	     -6.82316179	      3.98155452	      1.07985426	      0.92671524	      0.49583967	     15.69955751	      4.74062624	    -17.43859632	     18.13218810	     18.13218810	     10.30997505	      0.22407969	     -1.14714914	     31.58434760	    -14.23925511	      4.52984964	     72.46657963	     72.46657963	      1.32355690	    -16.84400761	      4.68242548	    -11.19000218	      6.57504974	      4.03427241	     12.87587390	    -17.11951789	     -0.77422818	     65.13921016	     44.95769950	      0.00000000	      0.00000000	      5.91925064	    -11.04161194	      4.70761932	     45.40658705	     45.89433349	      0.00000000	      0.00000000
     36.59285714	     -6.27512332	     -6.85005282	      4.12506143	      1.07893827	      0.92754672	      0.49665756	     14.87489975	      4.95252082	    -17.53888926	     17.42056243	     17.42056243	     10.44610279	      0.53443677	     -1.09609445	     33.50115366	    -14.13974321	      4.63063500	     72.38479057	     72.38479057	      1.78841739	    -16.92101929	      4.63414697	    -11.35048054	      6.50655982	      3.82572591	     15.23045318	    -17.07182385	     -0.98088813	     67.03455035	     44.91810853	      0.00000000	      0.00000000	      4.32131037	    -11.00532434	      4.82536132	     43.57746787	     45.86576240	      0.00000000	      0.00000000
     36.60428571	     -6.32913105	     -6.87911315	      4.24863140	      1.07806974	      0.92825217	      0.49741547	     14.04003428	      5.16845638	    -17.64616441	     16.68495224	     16.68495224	     10.59420555	      0.92004865	     -1.08674613	     35.29278065	    -14.02669317	      4.67972777	     72.06768694	     72.06768694	      2.24390636	    -17.00900078	      4.76662308	    -11.49825082	      6.46440817	      3.74106493	     17.51549169	    -17.14294423	     -1.02883888	     68.95758152	     44.87155269	      0.00000000	      0.00000000	      2.94726415	    -10.86659863	      4.89682766	     41.53962543	     45.84189165	      0.00000000	      0.00000000
     36.61571429	     -6.37124247	     -6.86881270	      4.33121142	      1.07723877	      0.92886710	      0.49804501	     13.20138255	      5.31925593	    -17.80592800	     15.96569360	     15.96569360	     10.63781723	      1.44871672	     -1.38758931	     36.94138497	    -13.85838948	      4.65177517	     71.50971617	     71.50971617	      3.00224517	    -16.93542932	      5.84468919	    -11.63303459	      6.37897339	      4.27843265	     19.17232259	    -18.04071360	     -0.35213270	     71.61237321	     44.79671256	      0.00000000	      0.00000000	      2.76562804	    -10.16522570	      4.47037814	     37.25746289	     45.91100801	      0.00000000	      0.00000000
     36.62714286	     -6.49724997	     -6.84971734	      4.35722154	      1.07640009	      0.92916162	      0.49870728	     12.53327668	      5.47147859	    -17.74092043	     15.39183301	     15.39183301	     10.85609417	      1.68109506	     -1.37919507	     38.50643135	    -13.72472996	      4.50802504	     70.56751142	     70.56751142	      3.30355836	    -17.00732016	      5.96388619	    -11.69142959	      6.24149135	      4.68056265	     21.29948838	    -18.34565588	     -0.76126871	     72.78993335	     44.78437478	      0.00000000	      0.00000000	      1.39085952	    -10.05111470	      4.54787050	     36.42811812	     45.88239825	      0.00000000	      0.00000000
     36.63857143	     -6.50002298	     -6.97571183	      4.49611352	      1.07579339	      0.92952622	      0.49918541	     11.45113274	      5.85003746	    -17.88102833	     14.25313785	     14.25313785	     10.90080181	      2.25378010	     -1.32946865	     39.84058431	    -13.63278580	      4.54696717	     69.27600761	     69.27600761	      3.67178393	    -17.10319889	      6.40983931	    -11.87080637	      6.33530237	      4.29180459	     23.56356011	    -17.97304749	     -0.85432929	     75.01037722	     44.73136001	      0.00000000	      0.00000000	     -0.11302903	    -10.04845104	      4.71127430	     34.89342212	     45.84285187	      0.00000000	      0.00000000
